<?xml version="1.0" standalone="no"?>
<!DOCTYPE svg PUBLIC "-//W3C//DTD SVG 20010904//EN"
 "http://www.w3.org/TR/2001/REC-SVG-20010904/DTD/svg10.dtd">
<svg version="1.0" xmlns="http://www.w3.org/2000/svg"
 width="300.000000pt" height="300.000000pt" viewBox="0 0 300.000000 300.000000"
 preserveAspectRatio="xMidYMid meet">
<metadata>
Created by potrace 1.11, written by Peter Selinger 2001-2013
</metadata>
<g transform="translate(0.000000,300.000000) scale(0.100000,-0.100000)"
fill="#000000" stroke="none">
<path d="M1750 2693 c-17 -18 -30 -36 -30 -40 0 -5 -6 -20 -14 -35 -14 -26
-21 -53 -32 -113 -8 -47 -24 -95 -50 -150 -24 -51 -47 -145 -35 -145 4 0 7 -8
8 -17 0 -10 4 -29 8 -43 12 -43 4 -127 -19 -189 -21 -58 -28 -97 -26 -146 3
-65 4 -75 10 -75 9 0 6 -32 -4 -48 -4 -6 -5 -12 -3 -12 3 0 -8 -14 -24 -31
-16 -18 -27 -34 -25 -37 3 -2 -1 -11 -9 -19 -8 -8 -19 -22 -24 -31 -9 -16 -12
-16 -38 -1 -15 9 -36 31 -45 49 -9 18 -22 38 -27 43 -6 6 -11 17 -11 23 0 7
-5 25 -12 41 -6 15 -10 31 -10 36 3 12 -51 81 -91 117 -27 24 -35 35 -26 41 7
4 17 5 21 3 4 -3 8 -1 8 4 0 12 56 33 64 24 9 -8 32 25 68 98 17 36 48 86 69
113 72 91 81 204 19 237 -27 14 -90 19 -90 7 0 -6 -3 -7 -7 -4 -3 4 -12 2 -20
-4 -7 -6 -13 -8 -13 -5 0 4 -35 -12 -77 -35 -43 -23 -95 -50 -115 -61 -21 -10
-38 -23 -38 -28 0 -5 -6 -7 -12 -5 -7 3 -47 11 -88 19 -75 14 -107 21 -138 30
-9 3 -39 8 -67 12 -27 3 -59 7 -70 9 -11 1 -19 8 -17 14 4 19 -30 69 -50 74
-10 3 -18 13 -18 24 0 10 -14 34 -30 53 -16 19 -30 38 -30 42 0 15 -100 78
-124 78 -28 0 -80 -45 -70 -61 3 -5 1 -9 -4 -9 -6 0 -13 -22 -17 -48 -5 -36
-1 -63 15 -108 14 -41 22 -93 24 -161 3 -100 10 -128 26 -118 5 3 11 -4 15
-15 3 -11 15 -24 25 -30 16 -8 17 -15 8 -52 -16 -67 -13 -101 17 -164 32 -67
32 -72 0 -136 -25 -50 -38 -105 -36 -153 1 -34 20 -87 34 -97 6 -3 12 -37 13
-75 5 -84 7 -101 22 -136 16 -37 36 -144 35 -187 0 -41 -15 -94 -36 -128 -12
-20 -30 -53 -39 -74 -17 -36 -16 -37 7 -62 29 -31 65 -31 130 0 35 17 42 26
53 69 7 28 12 70 12 95 -2 112 -1 133 11 141 7 4 17 5 22 2 8 -5 123 40 162
63 11 7 39 11 63 11 23 -1 42 1 42 4 0 13 151 20 167 7 7 -5 16 -7 21 -4 10 6
51 -72 57 -106 10 -68 23 -201 30 -303 11 -186 23 -202 144 -202 50 0 119 26
122 45 4 33 11 58 33 127 15 43 29 95 32 115 5 31 12 39 42 50 38 13 38 13 93
60 l37 30 62 -20 c35 -11 88 -23 119 -27 31 -3 61 -7 66 -7 34 -5 48 -49 23
-74 -9 -9 -8 -13 4 -17 10 -4 13 -15 10 -35 -3 -19 0 -30 7 -30 7 0 9 -5 6
-10 -4 -6 -2 -17 5 -25 18 -21 22 -63 8 -88 -14 -24 -19 -57 -9 -57 10 0 43
-59 37 -68 -9 -15 20 -40 84 -73 36 -18 70 -34 75 -34 34 -4 98 68 98 110 0 8
4 15 8 15 5 0 6 7 3 15 -4 8 -12 15 -20 15 -18 0 -103 87 -116 120 -14 32 -17
80 -6 80 4 0 8 10 8 23 0 12 11 40 24 63 23 40 39 98 40 141 1 11 16 38 35 59
46 49 63 102 67 201 3 66 -1 97 -21 160 -14 43 -25 80 -25 83 0 3 18 25 40 49
23 24 39 46 36 49 -3 2 0 14 6 25 6 11 12 57 13 102 2 79 29 185 47 185 4 0 8
7 8 15 0 8 3 15 8 15 4 0 25 26 47 56 l40 56 1 102 c1 55 4 110 8 121 32 105
41 245 16 253 -5 2 -10 12 -10 22 0 22 -55 50 -89 44 -52 -10 -141 -82 -203
-165 -15 -20 -24 -39 -21 -43 4 -3 1 -6 -5 -6 -7 0 -12 -7 -12 -15 0 -8 -4
-15 -8 -15 -5 0 -14 -16 -22 -35 -8 -19 -18 -35 -22 -35 -5 0 -6 -5 -2 -12 4
-6 3 -8 -4 -4 -6 3 -13 2 -17 -4 -4 -6 -12 -7 -18 -3 -16 10 -33 13 -89 18
-26 2 -63 9 -83 15 -19 6 -39 9 -45 5 -6 -4 -10 -3 -9 2 1 4 1 10 0 13 -1 3
-4 37 -6 76 -2 39 -7 84 -10 100 -3 16 -8 42 -11 57 -9 50 -33 96 -70 132 -46
47 -91 46 -134 -2z"/>
</g>
</svg>
